<mxfile host="app.diagrams.net" agent="Mozilla/5.0 (Windows NT 10.0; Win64; x64) AppleWebKit/537.36 (KHTML, like Gecko) Chrome/131.0.0.0 Safari/537.36" version="24.9.0">
  <diagram name="第 1 页" id="pL4dIZUGSFqgDVps-D3D">
    <mxGraphModel dx="1500" dy="813" grid="1" gridSize="10" guides="1" tooltips="1" connect="1" arrows="1" fold="1" page="1" pageScale="1" pageWidth="827" pageHeight="1169" math="0" shadow="0">
      <root>
        <mxCell id="0" />
        <mxCell id="1" parent="0" />
        <mxCell id="yJJHNnQ3fH9Hbxe9fSGy-7" value="普通用户" style="shape=umlActor;verticalLabelPosition=bottom;verticalAlign=top;html=1;fillColor=#f8cecc;strokeColor=#b85450;" vertex="1" parent="1">
          <mxGeometry x="240" y="120" width="30" height="60" as="geometry" />
        </mxCell>
        <mxCell id="yJJHNnQ3fH9Hbxe9fSGy-10" value="商家" style="shape=umlActor;verticalLabelPosition=bottom;verticalAlign=top;html=1;fillColor=#f8cecc;strokeColor=#b85450;" vertex="1" parent="1">
          <mxGeometry x="240" y="230" width="30" height="60" as="geometry" />
        </mxCell>
        <mxCell id="yJJHNnQ3fH9Hbxe9fSGy-13" value="商家" style="shape=umlActor;verticalLabelPosition=bottom;verticalAlign=top;html=1;fillColor=#f8cecc;strokeColor=#b85450;" vertex="1" parent="1">
          <mxGeometry x="240" y="370" width="30" height="60" as="geometry" />
        </mxCell>
        <mxCell id="yJJHNnQ3fH9Hbxe9fSGy-22" value="顶层用例图" style="swimlane;whiteSpace=wrap;html=1;" vertex="1" parent="1">
          <mxGeometry x="360" y="100" width="200" height="510" as="geometry">
            <mxRectangle x="70" y="460" width="140" height="30" as="alternateBounds" />
          </mxGeometry>
        </mxCell>
        <mxCell id="yJJHNnQ3fH9Hbxe9fSGy-1" value="用户管理功能" style="ellipse;whiteSpace=wrap;html=1;fillColor=#dae8fc;strokeColor=#6c8ebf;" vertex="1" parent="yJJHNnQ3fH9Hbxe9fSGy-22">
          <mxGeometry x="30" y="115" width="140" height="70" as="geometry" />
        </mxCell>
        <mxCell id="yJJHNnQ3fH9Hbxe9fSGy-2" value="百科管理功能" style="ellipse;whiteSpace=wrap;html=1;fillColor=#dae8fc;strokeColor=#6c8ebf;" vertex="1" parent="yJJHNnQ3fH9Hbxe9fSGy-22">
          <mxGeometry x="30" y="205" width="140" height="70" as="geometry" />
        </mxCell>
        <mxCell id="yJJHNnQ3fH9Hbxe9fSGy-3" value="用户社区管理功能" style="ellipse;whiteSpace=wrap;html=1;fillColor=#dae8fc;strokeColor=#6c8ebf;" vertex="1" parent="yJJHNnQ3fH9Hbxe9fSGy-22">
          <mxGeometry x="30" y="25" width="140" height="70" as="geometry" />
        </mxCell>
        <mxCell id="yJJHNnQ3fH9Hbxe9fSGy-4" value="用户社区管理功能" style="ellipse;whiteSpace=wrap;html=1;fillColor=#dae8fc;strokeColor=#6c8ebf;" vertex="1" parent="yJJHNnQ3fH9Hbxe9fSGy-22">
          <mxGeometry x="30" y="295" width="140" height="70" as="geometry" />
        </mxCell>
        <mxCell id="yJJHNnQ3fH9Hbxe9fSGy-5" value="用户反馈管理功能" style="ellipse;whiteSpace=wrap;html=1;fillColor=#dae8fc;strokeColor=#6c8ebf;" vertex="1" parent="yJJHNnQ3fH9Hbxe9fSGy-22">
          <mxGeometry x="30" y="395" width="140" height="70" as="geometry" />
        </mxCell>
      </root>
    </mxGraphModel>
  </diagram>
</mxfile>
